<svg width="85" height="85" viewBox="0 0 85 85" fill="none" xmlns="http://www.w3.org/2000/svg">
<path d="M42.5 85C30.6354 85 20.5859 80.8828 12.3516 72.6484C4.11719 64.4141 0 54.3646 0 42.5C0 30.6354 4.11719 20.5859 12.3516 12.3516C20.5859 4.11719 30.6354 0 42.5 0C48.6094 0 54.4531 1.2626 60.0313 3.78781C65.6094 6.30948 70.3906 9.91667 74.375 14.6094V5.3125C74.375 3.80729 74.885 2.54469 75.905 1.52469C76.9215 0.50823 78.1823 0 79.6875 0C81.1927 0 82.4535 0.50823 83.47 1.52469C84.49 2.54469 85 3.80729 85 5.3125V31.875C85 33.3802 84.49 34.641 83.47 35.6575C82.4535 36.6775 81.1927 37.1875 79.6875 37.1875H53.125C51.6198 37.1875 50.359 36.6775 49.3425 35.6575C48.3225 34.641 47.8125 33.3802 47.8125 31.875C47.8125 30.3698 48.3225 29.1072 49.3425 28.0872C50.359 27.0707 51.6198 26.5625 53.125 26.5625H70.125C67.2917 21.6042 63.4189 17.7083 58.5066 14.875C53.5907 12.0417 48.2552 10.625 42.5 10.625C33.6458 10.625 26.1198 13.724 19.9219 19.9219C13.724 26.1198 10.625 33.6458 10.625 42.5C10.625 51.3542 13.724 58.8802 19.9219 65.0781C26.1198 71.276 33.6458 74.375 42.5 74.375C48.6094 74.375 54.2548 72.7582 59.4362 69.5247C64.6142 66.2947 68.487 61.9792 71.0547 56.5781C71.4974 55.6042 72.2288 54.786 73.2488 54.1237C74.2652 53.4579 75.3047 53.125 76.3672 53.125C78.4036 53.125 79.9319 53.8333 80.9519 55.25C81.9683 56.6667 82.0781 58.2604 81.2812 60.0313C77.9167 67.5573 72.737 73.5994 65.7422 78.1575C58.7474 82.7192 51 85 42.5 85Z" fill="#E8D9FF"/>
</svg>
