<svg width="201" height="165" viewBox="0 0 201 165" fill="none" xmlns="http://www.w3.org/2000/svg">
<path d="M139.694 28.923C139.606 26.3728 137.366 24.32 134.592 24.2328L133.861 24.2246C132.158 24.2246 127.428 24.3764 121.58 25.4231C120.533 18.1552 118.413 12.9951 118.238 12.5832C117.718 11.3509 116.671 10.369 115.344 9.86345C114.697 9.61797 114.012 9.49514 113.328 9.49514C112.604 9.49514 111.882 9.63236 111.206 9.90528C110.82 10.062 106.564 11.8256 101.255 15.2625C96.6031 7.12249 91.2204 1.87507 90.8253 1.49559C89.8296 0.539411 88.4544 0 87.0179 0C85.5814 0 84.2062 0.539411 83.2121 1.49388C82.817 1.87336 77.4271 7.12893 72.7732 15.2769C67.4764 11.8496 63.216 10.0601 62.8313 9.90358C62.1553 9.63065 61.4333 9.49344 60.7099 9.49344C60.025 9.49344 59.34 9.61608 58.6938 9.86175C57.3662 10.3673 56.3211 11.3509 55.7996 12.5815C55.6257 12.9934 53.5059 18.1518 52.4593 25.4214C46.6076 24.3732 41.8799 24.2246 40.1764 24.2246L39.4423 24.2328C36.6693 24.32 34.4283 26.3728 34.3406 28.923C34.3089 29.8307 33.7487 51.3225 48.2831 64.6905C61.5619 76.9021 82.3994 77.5207 86.442 77.5207L86.9829 77.5142C86.9934 77.5142 87.0039 77.5207 87.0146 77.5207C87.0251 77.5207 87.0356 77.5142 87.0463 77.5142L87.5871 77.5207C91.63 77.5207 112.467 76.9021 125.746 64.6905C140.285 51.3241 139.725 29.8322 139.694 28.923ZM113.328 14.3389C113.328 14.3389 115.438 19.4231 116.403 26.5585C113.35 27.3451 110.179 28.4014 107.03 29.8144C106.213 26.208 104.989 22.8277 103.547 19.7364C108.928 16.1509 113.328 14.3389 113.328 14.3389ZM60.7078 14.3389C60.7078 14.3389 65.1071 16.1412 70.4917 19.7267C69.0463 22.8277 67.817 26.221 67.0004 29.8404C63.8515 28.4271 60.685 27.3547 57.631 26.5666C58.595 19.4281 60.7078 14.3389 60.7078 14.3389ZM52.0111 61.2649C38.9202 49.2262 39.6069 29.0765 39.6069 29.0765C39.6069 29.0765 39.8053 29.0716 40.1742 29.0716C42.9348 29.0716 55.239 29.4753 66.1432 34.8777C66.0168 36.152 65.9429 37.4457 65.9429 38.7603C65.9429 53.6755 74.745 66.2748 79.7871 72.2748C72.2338 71.4496 60.3444 68.9285 52.0111 61.2649ZM87.1335 72.5625C87.0317 72.5318 86.9316 72.5026 86.8016 72.4591C84.9471 70.6001 71.2118 56.2276 71.2118 38.7605C71.2118 20.0288 87.0177 4.84391 87.0177 4.84391C87.0177 4.84391 102.824 20.0288 102.824 38.7605C102.824 56.7346 88.3101 71.4028 87.1335 72.5625ZM122.026 61.2649C113.693 68.9285 101.803 71.4496 94.2497 72.2749C99.2901 66.275 108.092 53.6757 108.092 38.7605C108.092 37.4377 108.019 36.136 107.888 34.8537C118.793 29.4562 131.102 29.0701 133.861 29.0701C134.23 29.0701 134.428 29.075 134.428 29.075C134.428 29.075 135.115 49.2262 122.026 61.2649Z" fill="#E8D9FF"/>
<path d="M32.704 130.785C32.704 129.609 32.5195 128.57 32.1503 127.671C31.8042 126.748 31.1813 125.917 30.2815 125.179C29.4048 124.441 28.182 123.737 26.6131 123.068C25.0673 122.399 23.1062 121.718 20.7299 121.026C18.2381 120.288 15.9886 119.469 13.9814 118.569C11.9742 117.646 10.2553 116.596 8.8249 115.42C7.39446 114.243 6.29855 112.893 5.53719 111.37C4.77583 109.848 4.39514 108.106 4.39514 106.145C4.39514 104.184 4.7989 102.373 5.60641 100.711C6.41391 99.0502 7.56749 97.6082 9.06715 96.3854C10.5899 95.1396 12.401 94.1705 14.5005 93.4784C16.6 92.7862 18.9418 92.4402 21.5258 92.4402C25.3096 92.4402 28.5165 93.1669 31.1467 94.6204C33.7999 96.0509 35.8187 97.9312 37.203 100.261C38.5873 102.569 39.2794 105.037 39.2794 107.667H32.6348C32.6348 105.776 32.2311 104.103 31.4236 102.649C30.616 101.173 29.3933 100.019 27.7552 99.1886C26.1171 98.335 24.0406 97.9081 21.5258 97.9081C19.1495 97.9081 17.1884 98.2658 15.6426 98.981C14.0968 99.6962 12.9432 100.665 12.1818 101.888C11.4435 103.111 11.0744 104.507 11.0744 106.076C11.0744 107.137 11.2936 108.106 11.7319 108.983C12.1934 109.836 12.897 110.632 13.843 111.37C14.812 112.109 16.0348 112.789 17.5114 113.412C19.011 114.035 20.7991 114.635 22.8755 115.212C25.7364 116.019 28.2051 116.919 30.2815 117.911C32.358 118.903 34.0653 120.022 35.4034 121.268C36.7646 122.491 37.7683 123.887 38.4143 125.456C39.0833 127.001 39.4179 128.755 39.4179 130.716C39.4179 132.769 39.0026 134.627 38.172 136.288C37.3414 137.949 36.1532 139.368 34.6074 140.545C33.0616 141.721 31.2044 142.632 29.0356 143.278C26.89 143.901 24.4905 144.213 21.8373 144.213C19.5071 144.213 17.2114 143.89 14.9504 143.244C12.7125 142.598 10.6706 141.629 8.8249 140.337C7.00224 139.045 5.53719 137.453 4.42975 135.561C3.34539 133.646 2.8032 131.431 2.8032 128.916H9.44783C9.44783 130.647 9.78237 132.135 10.4514 133.381C11.1205 134.604 12.0319 135.619 13.1854 136.426C14.3621 137.234 15.6887 137.834 17.1653 138.226C18.6649 138.595 20.2223 138.78 21.8373 138.78C24.1675 138.78 26.1402 138.457 27.7552 137.811C29.3702 137.165 30.593 136.242 31.4236 135.042C32.2772 133.842 32.704 132.423 32.704 130.785ZM69.8724 134.869V106.076H76.3094V143.521H70.1839L69.8724 134.869ZM71.0837 126.978L73.7485 126.909C73.7485 129.401 73.4831 131.708 72.9525 133.831C72.4449 135.93 71.6143 137.753 70.4608 139.299C69.3072 140.844 67.796 142.056 65.9272 142.932C64.0584 143.786 61.7858 144.213 59.1095 144.213C57.2869 144.213 55.6142 143.948 54.0914 143.417C52.5918 142.886 51.2998 142.067 50.2154 140.96C49.131 139.852 48.2889 138.41 47.6891 136.634C47.1123 134.857 46.8239 132.723 46.8239 130.231V106.076H53.2262V130.301C53.2262 131.985 53.4108 133.381 53.78 134.488C54.1722 135.573 54.6913 136.438 55.3373 137.084C56.0064 137.707 56.7447 138.145 57.5522 138.399C58.3828 138.653 59.2364 138.78 60.1131 138.78C62.8356 138.78 64.9928 138.26 66.5847 137.222C68.1767 136.161 69.3187 134.742 70.0109 132.965C70.7261 131.166 71.0837 129.17 71.0837 126.978ZM107.871 133.588C107.871 132.666 107.664 131.812 107.248 131.027C106.856 130.22 106.037 129.493 104.791 128.847C103.569 128.178 101.723 127.601 99.2541 127.117C97.1777 126.678 95.2974 126.159 93.6131 125.559C91.952 124.96 90.5331 124.233 89.3564 123.379C88.2028 122.526 87.3146 121.522 86.6916 120.368C86.0687 119.215 85.7572 117.865 85.7572 116.319C85.7572 114.843 86.0802 113.447 86.7262 112.132C87.3953 110.817 88.3297 109.652 89.5294 108.636C90.7522 107.621 92.2173 106.825 93.9246 106.249C95.6319 105.672 97.5353 105.383 99.6348 105.383C102.634 105.383 105.195 105.914 107.318 106.975C109.44 108.037 111.067 109.455 112.197 111.232C113.328 112.985 113.893 114.935 113.893 117.081H107.491C107.491 116.042 107.179 115.039 106.556 114.07C105.956 113.078 105.068 112.259 103.892 111.613C102.738 110.967 101.319 110.644 99.6348 110.644C97.8583 110.644 96.4163 110.921 95.3089 111.474C94.2245 112.005 93.4286 112.686 92.921 113.516C92.4365 114.347 92.1942 115.223 92.1942 116.146C92.1942 116.838 92.3096 117.461 92.5403 118.015C92.7941 118.546 93.2324 119.042 93.8554 119.503C94.4783 119.942 95.355 120.357 96.4855 120.749C97.6161 121.141 99.058 121.533 100.811 121.926C103.88 122.618 106.406 123.448 108.391 124.417C110.375 125.386 111.851 126.575 112.82 127.982C113.789 129.389 114.274 131.097 114.274 133.104C114.274 134.742 113.928 136.242 113.236 137.603C112.566 138.964 111.586 140.141 110.294 141.133C109.025 142.102 107.502 142.863 105.726 143.417C103.972 143.948 102 144.213 99.8079 144.213C96.5086 144.213 93.7169 143.625 91.4329 142.448C89.1488 141.271 87.4184 139.749 86.2417 137.88C85.0651 136.011 84.4768 134.038 84.4768 131.962H90.9137C91.006 133.715 91.5136 135.111 92.4365 136.149C93.3593 137.165 94.4898 137.891 95.828 138.33C97.1662 138.745 98.4928 138.953 99.8079 138.953C101.561 138.953 103.026 138.722 104.203 138.26C105.403 137.799 106.314 137.165 106.937 136.357C107.56 135.55 107.871 134.627 107.871 133.588ZM129.086 90.3637V143.521H122.683V90.3637H129.086ZM127.563 123.379L124.898 123.275C124.921 120.714 125.302 118.35 126.04 116.181C126.779 113.989 127.817 112.086 129.155 110.471C130.493 108.856 132.085 107.61 133.931 106.733C135.8 105.833 137.865 105.383 140.126 105.383C141.971 105.383 143.632 105.637 145.109 106.145C146.586 106.629 147.843 107.414 148.881 108.498C149.943 109.582 150.75 110.99 151.304 112.72C151.857 114.427 152.134 116.515 152.134 118.984V143.521H145.697V118.915C145.697 116.954 145.409 115.385 144.832 114.208C144.255 113.009 143.413 112.143 142.306 111.613C141.198 111.059 139.837 110.782 138.222 110.782C136.63 110.782 135.177 111.117 133.862 111.786C132.57 112.455 131.451 113.378 130.505 114.554C129.582 115.731 128.855 117.081 128.324 118.603C127.817 120.103 127.563 121.695 127.563 123.379ZM183.8 137.118V117.842C183.8 116.365 183.5 115.085 182.9 114.001C182.324 112.893 181.447 112.04 180.27 111.44C179.094 110.84 177.64 110.54 175.91 110.54C174.295 110.54 172.876 110.817 171.653 111.37C170.453 111.924 169.507 112.651 168.815 113.551C168.146 114.451 167.811 115.42 167.811 116.458H161.409C161.409 115.12 161.755 113.793 162.447 112.478C163.139 111.163 164.132 109.975 165.424 108.913C166.739 107.829 168.308 106.975 170.13 106.352C171.976 105.706 174.029 105.383 176.29 105.383C179.013 105.383 181.412 105.845 183.489 106.768C185.588 107.691 187.226 109.086 188.403 110.955C189.603 112.801 190.202 115.12 190.202 117.911V135.353C190.202 136.599 190.306 137.926 190.514 139.333C190.745 140.741 191.079 141.952 191.518 142.967V143.521H184.838C184.515 142.782 184.262 141.802 184.077 140.579C183.892 139.333 183.8 138.18 183.8 137.118ZM184.908 120.818L184.977 125.317H178.505C176.683 125.317 175.056 125.467 173.626 125.767C172.195 126.044 170.995 126.471 170.026 127.048C169.057 127.624 168.319 128.351 167.811 129.228C167.304 130.082 167.05 131.085 167.05 132.239C167.05 133.415 167.315 134.488 167.846 135.457C168.377 136.426 169.173 137.199 170.234 137.776C171.318 138.33 172.645 138.606 174.214 138.606C176.175 138.606 177.905 138.191 179.405 137.361C180.905 136.53 182.093 135.515 182.97 134.315C183.869 133.115 184.354 131.95 184.423 130.82L187.157 133.9C186.996 134.869 186.557 135.942 185.842 137.118C185.127 138.295 184.169 139.426 182.97 140.51C181.793 141.571 180.386 142.459 178.747 143.175C177.132 143.867 175.31 144.213 173.279 144.213C170.742 144.213 168.515 143.717 166.6 142.725C164.708 141.733 163.232 140.406 162.17 138.745C161.132 137.061 160.613 135.18 160.613 133.104C160.613 131.097 161.005 129.332 161.79 127.809C162.574 126.263 163.705 124.983 165.181 123.968C166.658 122.929 168.434 122.145 170.511 121.614C172.587 121.084 174.906 120.818 177.467 120.818H184.908Z" fill="#E8D9FF"/>
</svg>
